<svg xmlns="http://www.w3.org/2000/svg" xmlns:xlink="http://www.w3.org/1999/xlink" viewBox="0 0 377.17 281.27"><defs><style>.cls-1{isolation:isolate;}.cls-10,.cls-100,.cls-101,.cls-104,.cls-109,.cls-11,.cls-112,.cls-117,.cls-118,.cls-119,.cls-132,.cls-133,.cls-134,.cls-135,.cls-136,.cls-137,.cls-138,.cls-139,.cls-140,.cls-141,.cls-2,.cls-24,.cls-3,.cls-4,.cls-5,.cls-56,.cls-57,.cls-6,.cls-65,.cls-68,.cls-7,.cls-79,.cls-8,.cls-82,.cls-87,.cls-88,.cls-89,.cls-9,.cls-90,.cls-96,.cls-97,.cls-98,.cls-99{mix-blend-mode:screen;}.cls-2{fill:url(#radial-gradient);}.cls-3{fill:url(#radial-gradient-2);}.cls-4{fill:url(#radial-gradient-3);}.cls-5{fill:url(#radial-gradient-4);}.cls-6{fill:url(#radial-gradient-5);}.cls-7{fill:url(#radial-gradient-6);}.cls-100,.cls-101,.cls-102,.cls-103,.cls-104,.cls-105,.cls-106,.cls-107,.cls-108,.cls-109,.cls-110,.cls-111,.cls-112,.cls-113,.cls-114,.cls-115,.cls-116,.cls-117,.cls-119,.cls-12,.cls-120,.cls-121,.cls-122,.cls-123,.cls-124,.cls-125,.cls-126,.cls-127,.cls-128,.cls-129,.cls-13,.cls-130,.cls-131,.cls-132,.cls-133,.cls-14,.cls-15,.cls-16,.cls-17,.cls-18,.cls-19,.cls-20,.cls-21,.cls-22,.cls-23,.cls-24,.cls-25,.cls-26,.cls-27,.cls-28,.cls-29,.cls-30,.cls-31,.cls-32,.cls-33,.cls-34,.cls-35,.cls-36,.cls-37,.cls-38,.cls-39,.cls-40,.cls-41,.cls-42,.cls-43,.cls-44,.cls-45,.cls-46,.cls-47,.cls-48,.cls-49,.cls-50,.cls-51,.cls-52,.cls-53,.cls-54,.cls-55,.cls-56,.cls-57,.cls-58,.cls-59,.cls-60,.cls-61,.cls-62,.cls-63,.cls-64,.cls-65,.cls-66,.cls-67,.cls-68,.cls-69,.cls-70,.cls-71,.cls-72,.cls-73,.cls-74,.cls-75,.cls-76,.cls-77,.cls-78,.cls-79,.cls-8,.cls-80,.cls-81,.cls-82,.cls-83,.cls-84,.cls-85,.cls-86,.cls-87,.cls-88,.cls-91,.cls-92,.cls-93,.cls-94,.cls-95{fill-rule:evenodd;}.cls-8{fill:url(#radial-gradient-7);}.cls-9{fill:url(#radial-gradient-8);}.cls-10{fill:url(#radial-gradient-9);}.cls-11{fill:url(#radial-gradient-10);}.cls-12{fill:url(#New_Gradient_Swatch_147);}.cls-13{fill:url(#New_Gradient_Swatch_147-2);}.cls-14{fill:url(#New_Gradient_Swatch_147-3);}.cls-15{fill:#cfcf4b;}.cls-16{fill:url(#New_Gradient_Swatch_147-4);}.cls-17{fill:url(#New_Gradient_Swatch_147-5);}.cls-18{fill:url(#linear-gradient);}.cls-19{fill:url(#linear-gradient-2);}.cls-20{fill:url(#linear-gradient-3);}.cls-21{fill:url(#radial-gradient-11);}.cls-22{fill:url(#New_Gradient_Swatch_148);}.cls-23{fill:url(#New_Gradient_Swatch_148-2);}.cls-24{opacity:0.2;fill:url(#radial-gradient-12);}.cls-25{fill:url(#linear-gradient-4);}.cls-26{fill:url(#linear-gradient-5);}.cls-27{fill:url(#linear-gradient-6);}.cls-28{fill:url(#linear-gradient-7);}.cls-29{fill:url(#linear-gradient-8);}.cls-30{fill:url(#linear-gradient-9);}.cls-31{fill:url(#linear-gradient-10);}.cls-32{fill:url(#New_Gradient_Swatch_148-3);}.cls-33{fill:url(#linear-gradient-11);}.cls-34{fill:url(#New_Gradient_Swatch_148-4);}.cls-35{fill:url(#linear-gradient-12);}.cls-36{fill:url(#New_Gradient_Swatch_148-5);}.cls-37{fill:url(#New_Gradient_Swatch_148-6);}.cls-38{fill:url(#New_Gradient_Swatch_148-7);}.cls-39{fill:url(#radial-gradient-13);}.cls-40{fill:url(#linear-gradient-13);}.cls-41{fill:url(#linear-gradient-14);}.cls-42{fill:url(#linear-gradient-15);}.cls-43{fill:url(#linear-gradient-16);}.cls-44{fill:url(#New_Gradient_Swatch_148-8);}.cls-45{fill:url(#radial-gradient-14);}.cls-46{fill:url(#linear-gradient-17);}.cls-47{fill:url(#linear-gradient-18);}.cls-48{fill:url(#linear-gradient-19);}.cls-49{fill:url(#linear-gradient-20);}.cls-50{fill:url(#linear-gradient-21);}.cls-51{fill:url(#linear-gradient-22);}.cls-52{fill:url(#linear-gradient-23);}.cls-53{fill:url(#linear-gradient-24);}.cls-54{fill:url(#New_Gradient_Swatch_148-9);}.cls-55{fill:url(#radial-gradient-15);}.cls-56{fill:url(#radial-gradient-16);}.cls-57{fill:url(#radial-gradient-17);}.cls-58{fill:url(#linear-gradient-25);}.cls-59{fill:url(#linear-gradient-26);}.cls-60{fill:url(#linear-gradient-27);}.cls-61{fill:url(#linear-gradient-28);}.cls-62,.cls-63,.cls-64,.cls-67,.cls-77,.cls-78,.cls-80,.cls-83{mix-blend-mode:multiply;}.cls-62{fill:url(#linear-gradient-29);}.cls-63{fill:url(#linear-gradient-30);}.cls-64{fill:url(#linear-gradient-31);}.cls-65{fill:url(#linear-gradient-32);}.cls-66{fill:url(#linear-gradient-33);}.cls-67{fill:url(#linear-gradient-34);}.cls-68{fill:url(#linear-gradient-35);}.cls-69{fill:url(#linear-gradient-36);}.cls-70{fill:url(#New_Gradient_Swatch_148-10);}.cls-71{fill:#f3efa3;}.cls-72{fill:#ababab;}.cls-73{fill:#e7e6e6;}.cls-74{fill:url(#New_Gradient_Swatch_147-6);}.cls-75{fill:url(#New_Gradient_Swatch_148-11);}.cls-76{fill:url(#New_Gradient_Swatch_147-7);}.cls-77{fill:url(#linear-gradient-37);}.cls-78{fill:url(#linear-gradient-38);}.cls-79{fill:url(#linear-gradient-39);}.cls-80{fill:url(#linear-gradient-40);}.cls-81{fill:url(#linear-gradient-41);}.cls-82{fill:url(#linear-gradient-42);}.cls-83{fill:url(#linear-gradient-43);}.cls-84{fill:url(#linear-gradient-44);}.cls-85{fill:#9a9999;}.cls-86{fill:url(#linear-gradient-45);}.cls-87{fill:url(#linear-gradient-46);}.cls-88{fill:url(#linear-gradient-47);}.cls-89,.cls-90{opacity:0.5;}.cls-89{fill:url(#linear-gradient-48);}.cls-90{fill:url(#linear-gradient-49);}.cls-91{fill:url(#linear-gradient-50);}.cls-92{fill:url(#linear-gradient-51);}.cls-93{fill:url(#linear-gradient-52);}.cls-94{fill:url(#linear-gradient-53);}.cls-95{fill:#fff;}.cls-134,.cls-135,.cls-136,.cls-137,.cls-138,.cls-139,.cls-140,.cls-141,.cls-96,.cls-97,.cls-98,.cls-99{opacity:0.75;}.cls-96{fill:url(#radial-gradient-18);}.cls-97{fill:url(#radial-gradient-19);}.cls-98{fill:url(#radial-gradient-20);}.cls-99{fill:url(#radial-gradient-21);}.cls-100{fill:url(#radial-gradient-22);}.cls-101{fill:url(#radial-gradient-23);}.cls-102{fill:url(#New_Gradient_Swatch_148-12);}.cls-103{fill:url(#radial-gradient-24);}.cls-104{fill:url(#radial-gradient-25);}.cls-105{fill:url(#linear-gradient-54);}.cls-106{fill:url(#linear-gradient-55);}.cls-107{fill:url(#linear-gradient-56);}.cls-108{fill:url(#linear-gradient-57);}.cls-109{fill:url(#radial-gradient-26);}.cls-110{fill:url(#New_Gradient_Swatch_148-13);}.cls-111{fill:url(#radial-gradient-27);}.cls-112{fill:url(#radial-gradient-28);}.cls-113{fill:url(#linear-gradient-58);}.cls-114{fill:url(#linear-gradient-59);}.cls-115{fill:url(#linear-gradient-60);}.cls-116{fill:url(#linear-gradient-61);}.cls-117{fill:url(#radial-gradient-29);}.cls-118{fill:url(#radial-gradient-30);}.cls-119{fill:url(#radial-gradient-31);}.cls-120{fill:url(#New_Gradient_Swatch_148-14);}.cls-121{fill:url(#radial-gradient-32);}.cls-122{fill:url(#linear-gradient-62);}.cls-123{fill:url(#linear-gradient-63);}.cls-124{fill:url(#linear-gradient-64);}.cls-125{fill:url(#linear-gradient-65);}.cls-126{fill:url(#New_Gradient_Swatch_148-15);}.cls-127{fill:url(#radial-gradient-33);}.cls-128{fill:url(#linear-gradient-66);}.cls-129{fill:url(#linear-gradient-67);}.cls-130{fill:url(#linear-gradient-68);}.cls-131{fill:url(#linear-gradient-69);}.cls-132{fill:url(#radial-gradient-34);}.cls-133{fill:url(#radial-gradient-35);}.cls-134{fill:url(#radial-gradient-36);}.cls-135{fill:url(#radial-gradient-37);}.cls-136{fill:url(#radial-gradient-38);}.cls-137{fill:url(#radial-gradient-39);}.cls-138{fill:url(#radial-gradient-40);}.cls-139{fill:url(#radial-gradient-41);}.cls-140{fill:url(#radial-gradient-42);}.cls-141{fill:url(#radial-gradient-43);}</style><radialGradient id="radial-gradient" cx="355.47" cy="208.66" r="21.7" gradientUnits="userSpaceOnUse"><stop offset="0" stop-color="#cdcd18"/><stop offset="0.2" stop-color="#919111"/><stop offset="0.4" stop-color="#5d5d0b"/><stop offset="0.58" stop-color="#353507"/><stop offset="0.75" stop-color="#191904"/><stop offset="0.89" stop-color="#070702"/><stop offset="1" stop-color="#010101"/></radialGradient><radialGradient id="radial-gradient-2" cx="355.47" cy="107.15" r="21.7" xlink:href="#radial-gradient"/><radialGradient id="radial-gradient-3" cx="21.7" cy="107.15" r="21.7" xlink:href="#radial-gradient"/><radialGradient id="radial-gradient-4" cx="21.7" cy="208.66" r="21.7" xlink:href="#radial-gradient"/><radialGradient id="radial-gradient-5" cx="188.59" cy="242.97" r="38.29" gradientUnits="userSpaceOnUse"><stop offset="0" stop-color="#feeb1a"/><stop offset="0.05" stop-color="#ecda18"/><stop offset="0.26" stop-color="#a69911"/><stop offset="0.45" stop-color="#6b630b"/><stop offset="0.63" stop-color="#3d3907"/><stop offset="0.78" stop-color="#1c1a04"/><stop offset="0.91" stop-color="#080802"/><stop offset="1" stop-color="#010101"/></radialGradient><radialGradient id="radial-gradient-6" cx="126.99" cy="242.97" r="29.86" gradientTransform="translate(334.11 63.35) rotate(76.66)" gradientUnits="userSpaceOnUse"><stop offset="0" stop-color="#e0dc07"/><stop offset="0.26" stop-color="#979405"/><stop offset="0.52" stop-color="#575503"/><stop offset="0.74" stop-color="#282702"/><stop offset="0.9" stop-color="#0c0b01"/><stop offset="1" stop-color="#010101"/></radialGradient><radialGradient id="radial-gradient-7" cx="88.44" cy="244.25" r="23.14" gradientTransform="matrix(1, 0, 0, 1, 0, 0)" xlink:href="#radial-gradient-6"/><radialGradient id="radial-gradient-8" cx="288.73" cy="244.25" r="23.14" gradientTransform="translate(451.22 -97.25) rotate(75.22)" xlink:href="#radial-gradient-6"/><radialGradient id="radial-gradient-9" cx="250.18" cy="242.97" r="29.86" gradientTransform="translate(245.09 -105.74) rotate(45)" xlink:href="#radial-gradient-6"/><radialGradient id="radial-gradient-10" cx="188.59" cy="70.12" r="70.12" gradientUnits="userSpaceOnUse"><stop offset="0" stop-color="#3a63ad"/><stop offset="0.09" stop-color="#325595"/><stop offset="0.31" stop-color="#213861"/><stop offset="0.52" stop-color="#132037"/><stop offset="0.7" stop-color="#090f1a"/><stop offset="0.86" stop-color="#030507"/><stop offset="0.97" stop-color="#010101"/></radialGradient><linearGradient id="New_Gradient_Swatch_147" x1="126.99" y1="265.19" x2="126.99" y2="259.02" gradientUnits="userSpaceOnUse"><stop offset="0" stop-color="#214a55"/><stop offset="1" stop-color="#1c3840"/></linearGradient><linearGradient id="New_Gradient_Swatch_147-2" x1="250.18" y1="265.19" x2="250.18" y2="259.02" xlink:href="#New_Gradient_Swatch_147"/><linearGradient id="New_Gradient_Swatch_147-3" x1="188.59" y1="266.48" x2="188.59" y2="259.02" xlink:href="#New_Gradient_Swatch_147"/><linearGradient id="New_Gradient_Swatch_147-4" x1="12.48" y1="208.66" x2="18.64" y2="208.66" xlink:href="#New_Gradient_Swatch_147"/><linearGradient id="New_Gradient_Swatch_147-5" x1="12.48" y1="107.15" x2="18.64" y2="107.15" xlink:href="#New_Gradient_Swatch_147"/><linearGradient id="linear-gradient" x1="358.53" y1="208.66" x2="364.7" y2="208.66" gradientUnits="userSpaceOnUse"><stop offset="0" stop-color="#1c3840"/><stop offset="1" stop-color="#214a55"/></linearGradient><linearGradient id="linear-gradient-2" x1="358.53" y1="107.15" x2="364.7" y2="107.15" xlink:href="#linear-gradient"/><linearGradient id="linear-gradient-3" x1="188.59" y1="261.14" x2="188.59" y2="54.67" gradientUnits="userSpaceOnUse"><stop offset="0" stop-color="#3c5a7d"/><stop offset="1" stop-color="#6387c5"/></linearGradient><radialGradient id="radial-gradient-11" cx="188.59" cy="60.01" r="249.49" gradientUnits="userSpaceOnUse"><stop offset="0" stop-color="#2459a6"/><stop offset="0.09" stop-color="#244f94"/><stop offset="0.26" stop-color="#243e78"/><stop offset="0.4" stop-color="#243466"/><stop offset="0.51" stop-color="#243060"/><stop offset="0.55" stop-color="#232f5d"/><stop offset="0.8" stop-color="#1f284d"/><stop offset="1" stop-color="#1e2547"/></radialGradient><linearGradient id="New_Gradient_Swatch_148" x1="18.18" y1="56.89" x2="18.18" y2="54.67" gradientUnits="userSpaceOnUse"><stop offset="0" stop-color="#6387c5"/><stop offset="1" stop-color="#3c5a7d"/></linearGradient><linearGradient id="New_Gradient_Swatch_148-2" x1="19.42" y1="57.8" x2="19.42" y2="56.24" xlink:href="#New_Gradient_Swatch_148"/><radialGradient id="radial-gradient-12" cx="104.99" cy="-53.44" r="373.84" gradientUnits="userSpaceOnUse"><stop offset="0" stop-color="#284681"/><stop offset="1" stop-color="#010101"/></radialGradient><linearGradient id="linear-gradient-4" x1="188.59" y1="266.48" x2="188.59" y2="259.57" gradientUnits="userSpaceOnUse"><stop offset="0" stop-color="#224270"/><stop offset="1" stop-color="#345e95"/></linearGradient><linearGradient id="linear-gradient-5" x1="188.59" y1="259.57" x2="188.59" y2="258.01" gradientUnits="userSpaceOnUse"><stop offset="0" stop-color="#8bb3e0"/><stop offset="1" stop-color="#4f77a8"/></linearGradient><linearGradient id="linear-gradient-6" x1="12.48" y1="157.91" x2="18.64" y2="157.91" gradientUnits="userSpaceOnUse"><stop offset="0" stop-color="#4f77a8"/><stop offset="1" stop-color="#8bb3e0"/></linearGradient><linearGradient id="linear-gradient-7" x1="356.96" y1="157.91" x2="358.53" y2="157.91" xlink:href="#linear-gradient-6"/><linearGradient id="linear-gradient-8" x1="18.64" y1="157.91" x2="20.21" y2="157.91" gradientUnits="userSpaceOnUse"><stop offset="0" stop-color="#345e95"/><stop offset="1" stop-color="#224270"/></linearGradient><linearGradient id="linear-gradient-9" x1="358.53" y1="157.91" x2="364.7" y2="157.91" xlink:href="#linear-gradient-8"/><linearGradient id="linear-gradient-10" x1="188.59" y1="57.8" x2="188.59" y2="56.24" xlink:href="#linear-gradient-4"/><linearGradient id="New_Gradient_Swatch_148-3" x1="358.99" y1="261.14" x2="358.99" y2="258.93" xlink:href="#New_Gradient_Swatch_148"/><linearGradient id="linear-gradient-11" x1="357.75" y1="259.57" x2="357.75" y2="258.01" xlink:href="#linear-gradient-3"/><linearGradient id="New_Gradient_Swatch_148-4" x1="18.18" y1="261.14" x2="18.18" y2="258.93" xlink:href="#New_Gradient_Swatch_148"/><linearGradient id="linear-gradient-12" x1="19.42" y1="259.57" x2="19.42" y2="258.01" xlink:href="#linear-gradient-3"/><linearGradient id="New_Gradient_Swatch_148-5" x1="358.99" y1="56.89" x2="358.99" y2="54.67" xlink:href="#New_Gradient_Swatch_148"/><linearGradient id="New_Gradient_Swatch_148-6" x1="357.75" y1="57.8" x2="357.75" y2="56.24" xlink:href="#New_Gradient_Swatch_148"/><linearGradient id="New_Gradient_Swatch_148-7" x1="15.5" y1="114.13" x2="15.5" y2="100.18" xlink:href="#New_Gradient_Swatch_148"/><radialGradient id="radial-gradient-13" cx="15.51" cy="107.15" r="4.01" gradientUnits="userSpaceOnUse"><stop offset="0" stop-color="#f2ec88"/><stop offset="1" stop-color="#edce20"/></radialGradient><linearGradient id="linear-gradient-13" x1="15.78" y1="102.16" x2="15.78" y2="100.18" gradientUnits="userSpaceOnUse"><stop offset="0" stop-color="#94885c"/><stop offset="1" stop-color="#2e517b"/></linearGradient><linearGradient id="linear-gradient-14" x1="15.5" y1="114.13" x2="15.5" y2="111.85" gradientUnits="userSpaceOnUse"><stop offset="0" stop-color="#9bb3c0"/><stop offset="1" stop-color="#9bbe67"/></linearGradient><linearGradient id="linear-gradient-15" x1="14.58" y1="112.29" x2="14.58" y2="101.69" gradientUnits="userSpaceOnUse"><stop offset="0" stop-color="#759db0"/><stop offset="1" stop-color="#486c97"/></linearGradient><linearGradient id="linear-gradient-16" x1="16.69" y1="114.13" x2="16.69" y2="100.18" xlink:href="#linear-gradient-15"/><linearGradient id="New_Gradient_Swatch_148-8" x1="15.5" y1="215.63" x2="15.5" y2="201.69" xlink:href="#New_Gradient_Swatch_148"/><radialGradient id="radial-gradient-14" cx="15.51" cy="208.66" r="4.01" xlink:href="#radial-gradient-13"/><linearGradient id="linear-gradient-17" x1="15.78" y1="215.63" x2="15.78" y2="213.66" xlink:href="#linear-gradient-14"/><linearGradient id="linear-gradient-18" x1="15.5" y1="203.96" x2="15.5" y2="201.69" xlink:href="#linear-gradient-13"/><linearGradient id="linear-gradient-19" x1="14.58" y1="214.12" x2="14.58" y2="203.52" xlink:href="#linear-gradient-15"/><linearGradient id="linear-gradient-20" x1="16.69" y1="215.63" x2="16.69" y2="201.69" xlink:href="#linear-gradient-15"/><linearGradient id="linear-gradient-21" x1="289.85" y1="56.24" x2="289.85" y2="50.07" gradientUnits="userSpaceOnUse"><stop offset="0" stop-color="#29405e"/><stop offset="1" stop-color="#4f698d"/></linearGradient><linearGradient id="linear-gradient-22" x1="87.32" y1="56.24" x2="87.32" y2="50.07" xlink:href="#linear-gradient-21"/><linearGradient id="linear-gradient-23" x1="188.51" y1="56.24" x2="188.51" y2="37.24" xlink:href="#linear-gradient-21"/><linearGradient id="linear-gradient-24" x1="188.59" y1="56.24" x2="188.59" y2="37.24" xlink:href="#linear-gradient-6"/><linearGradient id="New_Gradient_Swatch_148-9" x1="188.59" y1="264.38" x2="188.59" y2="261.13" xlink:href="#New_Gradient_Swatch_148"/><radialGradient id="radial-gradient-15" cx="188.59" cy="262.75" r="12.01" xlink:href="#radial-gradient-13"/><radialGradient id="radial-gradient-16" cx="188.59" cy="262.75" r="10.62" gradientUnits="userSpaceOnUse"><stop offset="0" stop-color="#e7e351"/><stop offset="1" stop-color="#010101"/></radialGradient><radialGradient id="radial-gradient-17" cx="188.59" cy="262.75" r="10.09" gradientUnits="userSpaceOnUse"><stop offset="0" stop-color="#fbf7cd"/><stop offset="1" stop-color="#010101"/></radialGradient><linearGradient id="linear-gradient-25" x1="176.91" y1="264.38" x2="176.91" y2="261.13" xlink:href="#linear-gradient-15"/><linearGradient id="linear-gradient-26" x1="188.59" y1="264.38" x2="188.59" y2="263.6" xlink:href="#linear-gradient-14"/><linearGradient id="linear-gradient-27" x1="188.59" y1="261.91" x2="188.59" y2="261.13" xlink:href="#linear-gradient-13"/><linearGradient id="linear-gradient-28" x1="200.26" y1="264.38" x2="200.26" y2="261.13" xlink:href="#linear-gradient-15"/><linearGradient id="linear-gradient-29" x1="162.56" y1="262.75" x2="174.33" y2="262.75" gradientUnits="userSpaceOnUse"><stop offset="0.17" stop-color="#fff"/><stop offset="0.3" stop-color="#fafbfb"/><stop offset="0.43" stop-color="#edeef0"/><stop offset="0.58" stop-color="#d7d9de"/><stop offset="0.72" stop-color="#b8bcc4"/><stop offset="0.87" stop-color="#9197a3"/><stop offset="1" stop-color="#687181"/></linearGradient><linearGradient id="linear-gradient-30" x1="202.84" y1="262.75" x2="214.61" y2="262.75" gradientUnits="userSpaceOnUse"><stop offset="0" stop-color="#687181"/><stop offset="0.13" stop-color="#9197a3"/><stop offset="0.28" stop-color="#b8bcc4"/><stop offset="0.42" stop-color="#d7d9de"/><stop offset="0.57" stop-color="#edeef0"/><stop offset="0.7" stop-color="#fafbfb"/><stop offset="0.83" stop-color="#fff"/></linearGradient><linearGradient id="linear-gradient-31" x1="162.56" y1="261.52" x2="172.44" y2="261.52" gradientUnits="userSpaceOnUse"><stop offset="0" stop-color="#fff"/><stop offset="1" stop-color="#aec9d9"/></linearGradient><linearGradient id="linear-gradient-32" x1="164.45" y1="263.99" x2="174.33" y2="263.99" gradientUnits="userSpaceOnUse"><stop offset="0" stop-color="#010101"/><stop offset="1" stop-color="#58798a"/></linearGradient><linearGradient id="linear-gradient-33" x1="173.16" y1="264.38" x2="173.16" y2="261.13" gradientUnits="userSpaceOnUse"><stop offset="0" stop-color="#3c6379"/><stop offset="1" stop-color="#283360"/></linearGradient><linearGradient id="linear-gradient-34" x1="204.73" y1="261.52" x2="214.61" y2="261.52" gradientUnits="userSpaceOnUse"><stop offset="0" stop-color="#aec9d9"/><stop offset="1" stop-color="#fff"/></linearGradient><linearGradient id="linear-gradient-35" x1="202.84" y1="263.99" x2="212.72" y2="263.99" gradientUnits="userSpaceOnUse"><stop offset="0" stop-color="#58798a"/><stop offset="1" stop-color="#010101"/></linearGradient><linearGradient id="linear-gradient-36" x1="204.01" y1="264.38" x2="204.01" y2="261.13" xlink:href="#linear-gradient-33"/><linearGradient id="New_Gradient_Swatch_148-10" x1="250.18" y1="263.74" x2="250.18" y2="260.58" xlink:href="#New_Gradient_Swatch_148"/><linearGradient id="New_Gradient_Swatch_147-6" x1="243.21" y1="260.98" x2="257.15" y2="260.98" xlink:href="#New_Gradient_Swatch_147"/><linearGradient id="New_Gradient_Swatch_148-11" x1="126.99" y1="263.74" x2="126.99" y2="260.58" xlink:href="#New_Gradient_Swatch_148"/><linearGradient id="New_Gradient_Swatch_147-7" x1="120.02" y1="260.98" x2="133.96" y2="260.98" xlink:href="#New_Gradient_Swatch_147"/><linearGradient id="linear-gradient-37" x1="123.32" y1="46.74" x2="140.72" y2="46.74" xlink:href="#linear-gradient-29"/><linearGradient id="linear-gradient-38" x1="236.3" y1="46.74" x2="253.69" y2="46.74" xlink:href="#linear-gradient-30"/><linearGradient id="linear-gradient-39" x1="123.32" y1="49.88" x2="135.89" y2="49.88" xlink:href="#linear-gradient-32"/><linearGradient id="linear-gradient-40" x1="128.15" y1="43.59" x2="140.72" y2="43.59" xlink:href="#linear-gradient-31"/><linearGradient id="linear-gradient-41" x1="137.73" y1="50.88" x2="137.73" y2="42.6" xlink:href="#linear-gradient-15"/><linearGradient id="linear-gradient-42" x1="241.12" y1="49.88" x2="253.69" y2="49.88" xlink:href="#linear-gradient-35"/><linearGradient id="linear-gradient-43" x1="236.3" y1="43.59" x2="248.87" y2="43.59" xlink:href="#linear-gradient-34"/><linearGradient id="linear-gradient-44" x1="239.28" y1="50.88" x2="239.28" y2="42.6" xlink:href="#linear-gradient-15"/><linearGradient id="linear-gradient-45" x1="188.51" y1="53.11" x2="188.51" y2="40.37" gradientUnits="userSpaceOnUse"><stop offset="0" stop-color="#2c53a1"/><stop offset="0.04" stop-color="#254e92"/><stop offset="0.13" stop-color="#144270"/><stop offset="0.2" stop-color="#0b3b5b"/><stop offset="0.25" stop-color="#073854"/><stop offset="0.4" stop-color="#0a3a59"/><stop offset="0.59" stop-color="#124069"/><stop offset="0.8" stop-color="#1f4a82"/><stop offset="1" stop-color="#2f56a3"/></linearGradient><linearGradient id="linear-gradient-46" x1="188.51" y1="42.68" x2="188.51" y2="40.76" gradientUnits="userSpaceOnUse"><stop offset="0" stop-color="#010101"/><stop offset="1" stop-color="#3763ac"/></linearGradient><linearGradient id="linear-gradient-47" x1="188.51" y1="52.72" x2="188.51" y2="51.34" gradientUnits="userSpaceOnUse"><stop offset="0" stop-color="#3763ac"/><stop offset="1" stop-color="#010101"/></linearGradient><linearGradient id="linear-gradient-48" x1="141.05" y1="46.75" x2="159.73" y2="46.75" gradientUnits="userSpaceOnUse"><stop offset="0" stop-color="#0098d0"/><stop offset="1" stop-color="#010101"/></linearGradient><linearGradient id="linear-gradient-49" x1="217.29" y1="46.75" x2="235.97" y2="46.75" gradientUnits="userSpaceOnUse"><stop offset="0" stop-color="#010101"/><stop offset="1" stop-color="#0098d0"/></linearGradient><linearGradient id="linear-gradient-50" x1="188.48" y1="54.67" x2="188.48" y2="53.11" gradientUnits="userSpaceOnUse"><stop offset="0" stop-color="#aec9d9"/><stop offset="1" stop-color="#5592ce"/></linearGradient><linearGradient id="linear-gradient-51" x1="233.62" y1="53.99" x2="233.62" y2="39.16" xlink:href="#linear-gradient-15"/><linearGradient id="linear-gradient-52" x1="188.51" y1="40.51" x2="188.51" y2="38.8" gradientUnits="userSpaceOnUse"><stop offset="0" stop-color="#4781b1"/><stop offset="1" stop-color="#2e517b"/></linearGradient><linearGradient id="linear-gradient-53" x1="143.39" y1="53.89" x2="143.39" y2="39.16" xlink:href="#linear-gradient-15"/><radialGradient id="radial-gradient-18" cx="125.32" cy="1262.74" r="15.9" gradientTransform="translate(-213.21 14.62) scale(3.21 0.2)" xlink:href="#radial-gradient-5"/><radialGradient id="radial-gradient-19" cx="-31.3" cy="-4839.05" r="25.35" gradientTransform="translate(95.46 92.93) rotate(180) scale(1.01 0.04)" xlink:href="#radial-gradient-5"/><radialGradient id="radial-gradient-20" cx="-153.56" cy="-4839.05" r="25.35" gradientTransform="translate(95.46 92.93) rotate(180) scale(1.01 0.04)" xlink:href="#radial-gradient-5"/><radialGradient id="radial-gradient-21" cx="-103.3" cy="-4898.59" r="25.35" gradientTransform="translate(95.46 92.93) rotate(180) scale(1.01 0.04)" xlink:href="#radial-gradient-5"/><radialGradient id="radial-gradient-22" cx="188.59" cy="262.75" r="11.4" gradientUnits="userSpaceOnUse"><stop offset="0" stop-color="#e0b70a"/><stop offset="0.05" stop-color="#c19d09"/><stop offset="0.13" stop-color="#947907"/><stop offset="0.22" stop-color="#6d5905"/><stop offset="0.31" stop-color="#4b3e04"/><stop offset="0.41" stop-color="#302703"/><stop offset="0.52" stop-color="#1b1602"/><stop offset="0.64" stop-color="#0c0a01"/><stop offset="0.78" stop-color="#040301"/><stop offset="1" stop-color="#010101"/></radialGradient><radialGradient id="radial-gradient-23" cx="247.22" cy="1297.44" r="70.15" gradientTransform="translate(-12.9 11.17) scale(0.82 0.02)" gradientUnits="userSpaceOnUse"><stop offset="0" stop-color="#66c5e1"/><stop offset="0.05" stop-color="#5eb5cf"/><stop offset="0.25" stop-color="#427f91"/><stop offset="0.43" stop-color="#2b525e"/><stop offset="0.61" stop-color="#192f35"/><stop offset="0.76" stop-color="#0c1619"/><stop offset="0.9" stop-color="#040607"/><stop offset="1" stop-color="#010101"/></radialGradient><linearGradient id="New_Gradient_Swatch_148-12" x1="87.32" y1="54.67" x2="87.32" y2="51.52" xlink:href="#New_Gradient_Swatch_148"/><radialGradient id="radial-gradient-24" cx="87.32" cy="53.11" r="4.01" xlink:href="#radial-gradient-13"/><radialGradient id="radial-gradient-25" cx="87.32" cy="53.11" r="3.5" xlink:href="#radial-gradient-16"/><linearGradient id="linear-gradient-54" x1="81.34" y1="54.67" x2="81.34" y2="52.08" xlink:href="#linear-gradient-15"/><linearGradient id="linear-gradient-55" x1="93.16" y1="54.67" x2="93.16" y2="51.52" xlink:href="#linear-gradient-15"/><linearGradient id="linear-gradient-56" x1="87.16" y1="52.84" x2="87.16" y2="51.52" xlink:href="#linear-gradient-13"/><linearGradient id="linear-gradient-57" x1="87.32" y1="54.67" x2="87.32" y2="53.89" xlink:href="#linear-gradient-14"/><radialGradient id="radial-gradient-26" cx="643.15" cy="749.46" r="70.11" gradientTransform="translate(-19.57 1.85) scale(0.17 0.07)" xlink:href="#radial-gradient"/><linearGradient id="New_Gradient_Swatch_148-13" x1="289.85" y1="54.67" x2="289.85" y2="51.52" xlink:href="#New_Gradient_Swatch_148"/><radialGradient id="radial-gradient-27" cx="289.85" cy="53.11" r="4.01" xlink:href="#radial-gradient-13"/><radialGradient id="radial-gradient-28" cx="289.85" cy="53.11" r="3.5" xlink:href="#radial-gradient-16"/><linearGradient id="linear-gradient-58" x1="295.83" y1="54.67" x2="295.83" y2="52.08" xlink:href="#linear-gradient-15"/><linearGradient id="linear-gradient-59" x1="284.01" y1="54.67" x2="284.01" y2="51.52" xlink:href="#linear-gradient-15"/><linearGradient id="linear-gradient-60" x1="290.01" y1="52.84" x2="290.01" y2="51.52" xlink:href="#linear-gradient-13"/><linearGradient id="linear-gradient-61" x1="289.85" y1="54.67" x2="289.85" y2="53.89" xlink:href="#linear-gradient-14"/><radialGradient id="radial-gradient-29" cx="1861.71" cy="749.46" r="70.11" gradientTransform="translate(-19.57 1.85) scale(0.17 0.07)" xlink:href="#radial-gradient"/><radialGradient id="radial-gradient-30" cx="-584.18" cy="2871.86" r="70.11" gradientTransform="translate(-180.93 10.06) rotate(-90) scale(0.17 0.07)" xlink:href="#radial-gradient"/><radialGradient id="radial-gradient-31" cx="-1194.92" cy="2871.86" r="70.11" gradientTransform="translate(-180.93 10.06) rotate(-90) scale(0.17 0.07)" xlink:href="#radial-gradient"/><linearGradient id="New_Gradient_Swatch_148-14" x1="361.67" y1="114.13" x2="361.67" y2="100.18" xlink:href="#New_Gradient_Swatch_148"/><radialGradient id="radial-gradient-32" cx="-381.65" cy="107.15" r="4.01" gradientTransform="matrix(-1, 0, 0, 1, -19.99, 0)" xlink:href="#radial-gradient-13"/><linearGradient id="linear-gradient-62" x1="-381.38" y1="102.16" x2="-381.38" y2="100.18" gradientTransform="matrix(-1, 0, 0, 1, -19.99, 0)" xlink:href="#linear-gradient-13"/><linearGradient id="linear-gradient-63" x1="-381.66" y1="114.13" x2="-381.66" y2="111.85" gradientTransform="matrix(-1, 0, 0, 1, -19.99, 0)" xlink:href="#linear-gradient-14"/><linearGradient id="linear-gradient-64" x1="-382.58" y1="112.29" x2="-382.58" y2="101.69" gradientTransform="matrix(-1, 0, 0, 1, -19.99, 0)" xlink:href="#linear-gradient-15"/><linearGradient id="linear-gradient-65" x1="-380.47" y1="114.13" x2="-380.47" y2="100.18" gradientTransform="matrix(-1, 0, 0, 1, -19.99, 0)" xlink:href="#linear-gradient-15"/><linearGradient id="New_Gradient_Swatch_148-15" x1="361.67" y1="215.63" x2="361.67" y2="201.69" xlink:href="#New_Gradient_Swatch_148"/><radialGradient id="radial-gradient-33" cx="-381.65" cy="208.66" r="4.01" gradientTransform="matrix(-1, 0, 0, 1, -19.99, 0)" xlink:href="#radial-gradient-13"/><linearGradient id="linear-gradient-66" x1="-381.38" y1="215.63" x2="-381.38" y2="213.66" gradientTransform="matrix(-1, 0, 0, 1, -19.99, 0)" xlink:href="#linear-gradient-14"/><linearGradient id="linear-gradient-67" x1="-381.66" y1="203.96" x2="-381.66" y2="201.69" gradientTransform="matrix(-1, 0, 0, 1, -19.99, 0)" xlink:href="#linear-gradient-13"/><linearGradient id="linear-gradient-68" x1="-382.58" y1="214.12" x2="-382.58" y2="203.52" gradientTransform="matrix(-1, 0, 0, 1, -19.99, 0)" xlink:href="#linear-gradient-15"/><linearGradient id="linear-gradient-69" x1="-380.47" y1="215.63" x2="-380.47" y2="201.69" gradientTransform="matrix(-1, 0, 0, 1, -19.99, 0)" xlink:href="#linear-gradient-15"/><radialGradient id="radial-gradient-34" cx="-584.18" cy="7932.82" r="70.11" gradientTransform="translate(-180.93 10.06) rotate(-90) scale(0.17 0.07)" xlink:href="#radial-gradient"/><radialGradient id="radial-gradient-35" cx="-1194.92" cy="7932.82" r="70.11" gradientTransform="translate(-180.93 10.06) rotate(-90) scale(0.17 0.07)" xlink:href="#radial-gradient"/><radialGradient id="radial-gradient-36" cx="104.97" cy="-194.56" r="9.86" gradientTransform="translate(-10.39 -192.4) rotate(90) scale(2.72 0.13)" xlink:href="#radial-gradient-5"/><radialGradient id="radial-gradient-37" cx="-34.62" cy="3078.1" r="15.72" gradientTransform="translate(-93.67 68.98) rotate(-90) scale(0.85 0.04)" xlink:href="#radial-gradient-5"/><radialGradient id="radial-gradient-38" cx="35.64" cy="-194.56" r="9.86" gradientTransform="matrix(0, -2.72, -0.13, 0, -10.39, 319.97)" xlink:href="#radial-gradient-5"/><radialGradient id="radial-gradient-39" cx="186" cy="3078.1" r="15.72" gradientTransform="matrix(0, 0.85, 0.04, 0, -93.67, 58.6)" xlink:href="#radial-gradient-5"/><radialGradient id="radial-gradient-40" cx="104.97" cy="1282.93" r="9.86" gradientTransform="matrix(0, 2.72, 0.13, 0, 189.57, -192.4)" xlink:href="#radial-gradient-5"/><radialGradient id="radial-gradient-41" cx="-34.62" cy="-2578.6" r="15.72" gradientTransform="matrix(0, -0.85, -0.04, 0, 272.86, 68.98)" xlink:href="#radial-gradient-5"/><radialGradient id="radial-gradient-42" cx="35.64" cy="1282.93" r="9.86" gradientTransform="translate(189.57 319.97) rotate(-90) scale(2.72 0.13)" xlink:href="#radial-gradient-5"/><radialGradient id="radial-gradient-43" cx="186" cy="-2578.6" r="15.72" gradientTransform="translate(272.86 58.6) rotate(90) scale(0.85 0.04)" xlink:href="#radial-gradient-5"/></defs><g class="cls-1"><g id="Слой_2" data-name="Слой 2"><g id="Слой_1-2" data-name="Слой 1"><circle class="cls-2" cx="355.47" cy="208.66" r="21.7"/><circle class="cls-3" cx="355.47" cy="107.15" r="21.7"/><circle class="cls-4" cx="21.7" cy="107.15" r="21.7"/><circle class="cls-5" cx="21.7" cy="208.66" r="21.7"/><circle class="cls-6" cx="188.59" cy="242.97" r="38.29"/><circle class="cls-7" cx="126.99" cy="242.97" r="29.86" transform="translate(-138.73 310.49) rotate(-76.66)"/><path class="cls-8" d="M111.58,244.25a23.15,23.15,0,1,1-23.14-23.14A23.14,23.14,0,0,1,111.58,244.25Z"/><circle class="cls-9" cx="288.73" cy="244.25" r="23.14" transform="translate(-21.12 461.1) rotate(-75.22)"/><circle class="cls-10" cx="250.18" cy="242.97" r="29.86" transform="translate(-98.53 248.07) rotate(-45)"/><circle class="cls-11" cx="188.59" cy="70.12" r="70.12"/><polygon class="cls-12" points="111.21 259.02 142.77 259.02 137.34 265.19 116 264.07 111.21 259.02 111.21 259.02"/><polygon class="cls-13" points="265.96 259.02 234.4 259.02 239.84 265.19 261.18 264.07 265.96 259.02 265.96 259.02"/><polygon class="cls-14" points="156.85 259.02 220.32 259.02 213.73 266.49 163.44 266.49 156.85 259.02 156.85 259.02"/><polygon class="cls-15" points="80.68 260.2 96.2 260.2 96.2 260.98 80.68 260.98 80.68 260.2 80.68 260.2"/><polygon class="cls-15" points="280.97 260.2 296.49 260.2 296.49 260.98 280.97 260.98 280.97 260.2 280.97 260.2"/><polygon class="cls-16" points="18.64 224.44 18.64 192.88 12.47 198.31 13.6 219.66 18.64 224.44 18.64 224.44"/><polygon class="cls-17" points="18.64 91.37 18.64 122.94 12.47 117.5 13.6 96.16 18.64 91.37 18.64 91.37"/><polygon class="cls-18" points="358.53 224.44 358.53 192.88 364.69 198.31 363.57 219.66 358.53 224.44 358.53 224.44"/><polygon class="cls-19" points="358.53 91.37 358.53 122.94 364.69 117.5 363.57 96.16 358.53 91.37 358.53 91.37"/><polygon class="cls-20" points="18.64 54.67 358.53 54.67 360.09 56.24 360.09 259.57 358.53 261.14 296.49 261.14 295.71 260.36 281.75 260.36 280.97 261.14 96.2 261.14 95.42 260.36 81.46 260.36 80.68 261.14 18.64 261.14 17.08 259.57 17.08 56.24 18.64 54.67 18.64 54.67"/><polygon class="cls-21" points="20.21 57.8 356.96 57.8 356.96 258.01 20.21 258.01 20.21 57.8 20.21 57.8"/><polygon class="cls-22" points="17.08 56.24 18.64 56.89 19.29 56.24 18.64 54.67 17.08 56.24 17.08 56.24"/><polygon class="cls-23" points="19.29 56.24 18.64 56.89 20.21 57.8 19.29 56.24 19.29 56.24"/><polygon class="cls-24" points="270.13 57.8 356.96 57.8 356.96 258.01 93.58 258.01 270.13 57.8 270.13 57.8"/><polygon class="cls-25" points="357.88 259.57 19.29 259.57 18.64 261.14 80.68 261.14 81.46 260.36 95.42 260.36 96.2 261.14 114.29 261.14 116 264.07 137.34 265.19 139.69 261.14 160.33 261.14 163.44 266.49 213.73 266.49 216.85 261.14 237.48 261.14 239.84 265.19 261.18 264.07 262.88 261.14 280.97 261.14 281.75 260.36 295.71 260.36 296.49 261.14 358.53 261.14 357.88 259.57 357.88 259.57"/><polygon class="cls-26" points="19.29 259.57 357.88 259.57 356.96 258.01 20.21 258.01 19.29 259.57 19.29 259.57"/><polygon class="cls-27" points="18.64 258.93 18.64 222.59 18.64 194.72 18.64 121.09 18.64 93.22 18.64 56.89 17.08 56.24 17.08 94.13 13.6 96.16 12.47 117.5 17.08 120.18 17.08 195.64 12.47 198.31 13.6 219.66 17.08 221.68 17.08 259.57 18.64 258.93 18.64 258.93"/><polygon class="cls-28" points="356.96 57.8 356.96 258.01 358.53 258.93 358.53 56.89 356.96 57.8 356.96 57.8"/><polygon class="cls-29" points="20.21 57.8 20.21 258.01 18.64 258.93 18.64 56.89 20.21 57.8 20.21 57.8"/><polygon class="cls-30" points="358.53 258.93 358.53 222.59 358.53 194.72 358.53 121.09 358.53 93.22 358.53 56.89 360.09 56.24 360.09 94.13 363.57 96.16 364.69 117.5 360.09 120.18 360.09 195.64 364.69 198.31 363.57 219.66 360.09 221.68 360.09 259.57 358.53 258.93 358.53 258.93"/><polygon class="cls-31" points="19.29 56.24 357.88 56.24 356.96 57.8 20.21 57.8 19.29 56.24 19.29 56.24"/><polygon class="cls-32" points="360.09 259.57 358.53 258.93 357.88 259.57 358.53 261.14 360.09 259.57 360.09 259.57"/><polygon class="cls-33" points="357.88 259.57 358.53 258.93 356.96 258.01 357.88 259.57 357.88 259.57"/><polygon class="cls-34" points="17.08 259.57 18.64 258.93 19.29 259.57 18.64 261.14 17.08 259.57 17.08 259.57"/><polygon class="cls-35" points="19.29 259.57 18.64 258.93 20.21 258.01 19.29 259.57 19.29 259.57"/><polygon class="cls-36" points="360.09 56.24 358.53 56.89 357.88 56.24 358.53 54.67 360.09 56.24 360.09 56.24"/><polygon class="cls-37" points="357.88 56.24 358.53 56.89 356.96 57.8 357.88 56.24 357.88 56.24"/><polygon class="cls-38" points="13.92 112.29 17.08 114.13 17.08 100.18 14.48 101.69 13.92 112.29 13.92 112.29"/><polygon class="cls-39" points="14.73 111.85 16.3 112.77 16.3 101.54 15.24 102.16 14.73 111.85 14.73 111.85"/><polygon class="cls-40" points="14.48 101.69 15.24 102.16 16.3 101.54 17.08 100.18 14.48 101.69 14.48 101.69"/><polygon class="cls-41" points="14.73 111.85 13.92 112.29 17.08 114.13 16.3 112.77 14.73 111.85 14.73 111.85"/><polygon class="cls-42" points="13.92 112.29 14.73 111.85 15.24 102.16 14.48 101.69 13.92 112.29 13.92 112.29"/><polygon class="cls-43" points="16.3 101.54 16.3 112.77 17.08 114.13 17.08 100.18 16.3 101.54 16.3 101.54"/><polygon class="cls-44" points="13.92 203.52 17.08 201.69 17.08 215.63 14.48 214.12 13.92 203.52 13.92 203.52"/><polygon class="cls-45" points="14.73 203.96 16.3 203.05 16.3 214.27 15.24 213.66 14.73 203.96 14.73 203.96"/><polygon class="cls-46" points="14.48 214.12 15.24 213.66 16.3 214.27 17.08 215.63 14.48 214.12 14.48 214.12"/><polygon class="cls-47" points="14.73 203.96 13.92 203.52 17.08 201.69 16.3 203.05 14.73 203.96 14.73 203.96"/><polygon class="cls-48" points="13.92 203.52 14.73 203.96 15.24 213.66 14.48 214.12 13.92 203.52 13.92 203.52"/><polygon class="cls-49" points="16.3 214.27 16.3 203.05 17.08 201.69 17.08 215.63 16.3 214.27 16.3 214.27"/><polygon class="cls-50" points="305.63 56.24 274.06 56.24 279.5 50.07 300.84 51.19 305.63 56.24 305.63 56.24"/><polygon class="cls-51" points="71.54 56.24 103.11 56.24 97.67 50.07 76.33 51.19 71.54 56.24 71.54 56.24"/><path class="cls-52" d="M108.8,56.24H268.22L253.33,39.36a6,6,0,0,0-4.7-2.12H128.38a6,6,0,0,0-4.69,2.12L108.8,56.24Z"/><path class="cls-53" d="M357.88,56.24H19.29l-.65-1.57H74.3l2-3.48,21.34-1.12,2.68,4.6h11.46a6.12,6.12,0,0,0,5.4-3.1l7-12a4.57,4.57,0,0,1,4.06-2.33h120.5a4.58,4.58,0,0,1,4.06,2.33l7,12a6.13,6.13,0,0,0,5.41,3.1h11.61l2.68-4.6,21.34,1.12,2,3.48h55.66l-.65,1.57Z"/><polygon class="cls-54" points="175.73 261.13 201.44 261.13 199.54 264.38 177.63 264.38 175.73 261.13 175.73 261.13"/><polygon class="cls-55" points="177.09 261.91 200.08 261.91 199.09 263.6 178.08 263.6 177.09 261.91 177.09 261.91"/><path class="cls-56" d="M178.32,262.3h20.53a.3.3,0,0,1,.27.16.29.29,0,0,1,0,.31l-.09.16a.54.54,0,0,1-.48.28H178.62a.55.55,0,0,1-.48-.28l-.09-.16a.29.29,0,0,1,0-.31.32.32,0,0,1,.27-.16Z"/><path class="cls-57" d="M178.46,262.69h20.26l0,.05a.15.15,0,0,1-.14.07H178.62a.15.15,0,0,1-.14-.07l0-.05Z"/><polygon class="cls-58" points="177.09 261.91 178.08 263.6 177.63 264.38 175.73 261.13 177.09 261.91 177.09 261.91"/><polygon class="cls-59" points="178.08 263.6 188.59 263.6 199.09 263.6 199.54 264.38 188.59 264.38 177.63 264.38 178.08 263.6 178.08 263.6"/><polygon class="cls-60" points="201.44 261.13 200.08 261.91 188.59 261.91 177.09 261.91 175.73 261.13 188.59 261.13 201.44 261.13 201.44 261.13"/><polygon class="cls-61" points="200.08 261.91 201.44 261.13 199.54 264.38 199.09 263.6 200.08 261.91 200.08 261.91"/><polygon class="cls-62" points="164.46 264.38 174.33 264.38 172.44 261.13 162.56 261.13 164.46 264.38 164.46 264.38"/><polygon class="cls-63" points="212.72 264.38 202.84 264.38 204.73 261.13 214.61 261.13 212.72 264.38 212.72 264.38"/><polygon class="cls-64" points="162.56 261.13 171.99 261.91 172.44 261.13 162.56 261.13 162.56 261.13"/><polygon class="cls-65" points="172.97 263.6 174.33 264.38 164.46 264.38 172.97 263.6 172.97 263.6"/><polygon class="cls-66" points="172.97 263.6 171.99 261.91 172.44 261.13 174.33 264.38 172.97 263.6 172.97 263.6"/><polygon class="cls-67" points="214.61 261.13 205.18 261.91 204.73 261.13 214.61 261.13 214.61 261.13"/><polygon class="cls-68" points="204.2 263.6 202.84 264.38 212.72 264.38 204.2 263.6 204.2 263.6"/><polygon class="cls-69" points="204.2 263.6 205.18 261.91 204.73 261.13 202.84 264.38 204.2 263.6 204.2 263.6"/><polygon class="cls-70" points="245.04 263.74 243.21 260.58 257.15 260.58 255.64 263.18 245.04 263.74 245.04 263.74"/><polygon class="cls-15" points="245.48 262.93 244.57 261.37 255.79 261.37 255.18 262.42 245.48 262.93 245.48 262.93"/><polygon class="cls-71" points="245.7 262.53 245.25 261.76 255.11 261.76 254.94 262.04 245.7 262.53 245.7 262.53"/><polygon class="cls-72" points="255.64 263.18 255.18 262.42 255.79 261.37 257.15 260.58 255.64 263.18 255.64 263.18"/><polygon class="cls-72" points="245.48 262.93 245.04 263.74 243.21 260.58 244.57 261.37 245.48 262.93 245.48 262.93"/><polygon class="cls-73" points="245.04 263.74 245.48 262.93 255.18 262.42 255.64 263.18 245.04 263.74 245.04 263.74"/><polygon class="cls-74" points="255.79 261.37 244.57 261.37 243.21 260.58 257.15 260.58 255.79 261.37 255.79 261.37"/><polygon class="cls-75" points="132.13 263.74 133.96 260.58 120.02 260.58 121.53 263.18 132.13 263.74 132.13 263.74"/><polygon class="cls-15" points="131.69 262.93 132.6 261.37 121.38 261.37 122 262.42 131.69 262.93 131.69 262.93"/><polygon class="cls-71" points="131.47 262.53 122.23 262.04 122.06 261.76 131.92 261.76 131.47 262.53 131.47 262.53"/><polygon class="cls-72" points="121.53 263.18 122 262.42 121.38 261.37 120.02 260.58 121.53 263.18 121.53 263.18"/><polygon class="cls-72" points="131.69 262.93 132.13 263.74 133.96 260.58 132.6 261.37 131.69 262.93 131.69 262.93"/><polygon class="cls-73" points="132.13 263.74 131.69 262.93 122 262.42 121.53 263.18 132.13 263.74 132.13 263.74"/><polygon class="cls-76" points="121.38 261.37 132.6 261.37 133.96 260.58 120.02 260.58 121.38 261.37 121.38 261.37"/><polygon class="cls-77" points="128.15 42.6 140.72 42.6 135.9 50.88 123.32 50.88 128.15 42.6 128.15 42.6"/><polygon class="cls-78" points="248.87 42.6 236.3 42.6 241.12 50.88 253.69 50.88 248.87 42.6 248.87 42.6"/><polygon class="cls-79" points="123.32 50.88 134.75 48.89 135.89 50.88 123.32 50.88 123.32 50.88"/><polygon class="cls-80" points="137.25 44.59 140.72 42.6 128.15 42.6 137.25 44.59 137.25 44.59"/><polygon class="cls-81" points="137.25 44.59 134.75 48.89 135.89 50.88 140.72 42.6 137.25 44.59 137.25 44.59"/><polygon class="cls-82" points="253.69 50.88 242.27 48.89 241.12 50.88 253.69 50.88 253.69 50.88"/><polygon class="cls-83" points="239.76 44.59 236.3 42.6 248.87 42.6 239.76 44.59 239.76 44.59"/><polygon class="cls-84" points="239.76 44.59 242.27 48.89 241.12 50.88 236.3 42.6 239.76 44.59 239.76 44.59"/><path class="cls-85" d="M146.15,40.16l-7.08,12.16a1.57,1.57,0,0,0,1.36,2.35h96.16a1.53,1.53,0,0,0,1.36-.78,1.55,1.55,0,0,0,0-1.57l-7.08-12.16a2.71,2.71,0,0,0-1-1,2.67,2.67,0,0,0-1.37-.36h-80a2.64,2.64,0,0,0-1.37.36,2.82,2.82,0,0,0-1,1Z"/><path class="cls-86" d="M140.43,53.11h96.16L229.51,41a1.09,1.09,0,0,0-1-.58h-80a1.25,1.25,0,0,0-.59.14,1.19,1.19,0,0,0-.42.44l-7.08,12.16Z"/><path class="cls-87" d="M230.07,42.68l-.9-1.54a.72.72,0,0,0-.67-.38h-80a.75.75,0,0,0-.39.09.89.89,0,0,0-.29.29L147,42.68Z"/><path class="cls-88" d="M141.11,52.72h94.8c-1.07-1.84-93.73-1.84-94.8,0Z"/><path class="cls-89" d="M147.21,41.47l12.52.05-12.59.06.07-.11Zm-.68,1.15,13.2.06-13.27.06.07-.12Zm-.67,1.16,13.87.06-13.95.07.08-.13Zm-.67,1.15,14.54.07-14.62.07.08-.14Zm-.68,1.16,15.22.07-15.3.07.08-.14Zm-.67,1.15,15.89.08-16,.07.08-.15Zm-.67,1.16,16.56.08-16.65.07.09-.15Zm-.67,1.15,17.23.08-17.33.09.1-.17Zm-.68,1.16,17.91.08-18,.09.09-.17Zm-.67,1.15,18.58.09L141.05,52l.1-.18Z"/><path class="cls-90" d="M229.81,41.47l-12.52.05,12.59.06-.07-.11Zm.67,1.15-13.19.06,13.27.06-.08-.12Zm.68,1.16-13.87.06,13.94.07-.07-.13Zm.67,1.15L217.29,45l14.62.07-.08-.14Zm.67,1.16-15.21.07,15.29.07-.08-.14Zm.67,1.15-15.88.08,16,.07-.09-.15Zm.68,1.16-16.56.08,16.65.07-.09-.15Zm.67,1.15-17.23.08,17.32.09-.09-.17Zm.67,1.16-17.9.08,18,.09-.1-.17Zm.68,1.15L217.29,52,236,52l-.1-.18Z"/><path class="cls-91" d="M237.88,54l-1.29-.88H140.43l-1.36.78a1.53,1.53,0,0,0,1.36.78h96.16a1.5,1.5,0,0,0,1.29-.68Z"/><path class="cls-92" d="M236.59,53.11l1.29.88a.61.61,0,0,0,.07-.1,1.55,1.55,0,0,0,0-1.57l-7.08-12.16a2.71,2.71,0,0,0-1-1l-.78,1.35a1.19,1.19,0,0,1,.42.44l.3.52.07.11.6,1,.08.12.6,1,.07.13.6,1,.08.14.59,1,.08.14.59,1,.09.15.59,1,.09.15.58,1,.09.17.58,1,.1.17.58,1,.1.18.62,1.07Z"/><path class="cls-93" d="M148.52,40.37h80a1.15,1.15,0,0,1,.59.14l.78-1.35a2.67,2.67,0,0,0-1.37-.36h-80a2.64,2.64,0,0,0-1.37.36l.78,1.35a1.25,1.25,0,0,1,.59-.14Z"/><path class="cls-94" d="M146.53,42.62l.61-1,.07-.11.3-.52a1.19,1.19,0,0,1,.42-.44l-.78-1.35a2.82,2.82,0,0,0-1,1l-7.08,12.16a1.53,1.53,0,0,0,0,1.57l1.36-.78.62-1.07.1-.18.58-1,.09-.17.58-1,.1-.17.58-1,.09-.15.59-1,.08-.15.59-1,.08-.14.6-1,.08-.14.59-1,.08-.13.6-1,.07-.12Z"/><path class="cls-95" d="M188.59,38.33c14,0,27.27.17,39.06.47H149.52c11.79-.3,25-.47,39.07-.47Z"/><path class="cls-96" d="M137.59,262.75c0-1.72,22.83-3.12,51-3.12s51,1.4,51,3.12-22.83,3.13-51,3.13S137.59,264.48,137.59,262.75Z"/><ellipse class="cls-97" cx="126.99" cy="262.29" rx="25.53" ry="0.89"/><ellipse class="cls-98" cx="250.18" cy="262.29" rx="25.53" ry="0.89"/><path class="cls-99" d="M225.07,264.38c0,.49-11.43.89-25.53.89s-25.52-.4-25.52-.89,11.42-.89,25.52-.89S225.07,263.89,225.07,264.38Z"/><path class="cls-100" d="M200,262.75a11.4,11.4,0,1,1-11.39-11.4A11.39,11.39,0,0,1,200,262.75Z"/><path class="cls-101" d="M245.74,40.76c0,.88-25.59,1.6-57.15,1.6s-57.15-.72-57.15-1.6,25.58-1.6,57.15-1.6S245.74,39.87,245.74,40.76Z"/><polygon class="cls-102" points="92.46 51.52 94.3 54.67 80.35 54.67 81.86 52.08 92.46 51.52 92.46 51.52"/><polygon class="cls-103" points="92.02 52.33 92.93 53.89 81.71 53.89 82.33 52.84 92.02 52.33 92.02 52.33"/><polygon class="cls-104" points="91.81 52.73 82.56 53.22 82.39 53.5 92.25 53.5 91.81 52.73 91.81 52.73"/><polygon class="cls-105" points="81.86 52.08 82.33 52.84 81.71 53.89 80.35 54.67 81.86 52.08 81.86 52.08"/><polygon class="cls-106" points="92.02 52.33 92.46 51.52 94.3 54.67 92.93 53.89 92.02 52.33 92.02 52.33"/><polygon class="cls-107" points="92.46 51.52 92.02 52.33 82.33 52.84 81.86 52.08 92.46 51.52 92.46 51.52"/><polygon class="cls-108" points="81.71 53.89 92.93 53.89 94.3 54.67 80.35 54.67 81.71 53.89 81.71 53.89"/><path class="cls-109" d="M99,53.11c0,2.65-5.22,4.8-11.66,4.8s-11.65-2.15-11.65-4.8,5.22-4.79,11.65-4.79S99,50.47,99,53.11Z"/><polygon class="cls-110" points="284.71 51.52 282.88 54.67 296.82 54.67 295.31 52.08 284.71 51.52 284.71 51.52"/><polygon class="cls-111" points="285.15 52.33 284.24 53.89 295.46 53.89 294.85 52.84 285.15 52.33 285.15 52.33"/><polygon class="cls-112" points="285.37 52.73 284.92 53.5 294.78 53.5 294.61 53.22 285.37 52.73 285.37 52.73"/><polygon class="cls-113" points="295.31 52.08 294.85 52.84 295.46 53.89 296.82 54.67 295.31 52.08 295.31 52.08"/><polygon class="cls-114" points="285.15 52.33 284.71 51.52 282.88 54.67 284.24 53.89 285.15 52.33 285.15 52.33"/><polygon class="cls-115" points="284.71 51.52 285.15 52.33 294.85 52.84 295.31 52.08 284.71 51.52 284.71 51.52"/><polygon class="cls-116" points="295.46 53.89 284.24 53.89 282.88 54.67 296.82 54.67 295.46 53.89 295.46 53.89"/><path class="cls-117" d="M301.5,53.11c0,2.65-5.21,4.8-11.65,4.8s-11.66-2.15-11.66-4.8,5.22-4.79,11.66-4.79S301.5,50.47,301.5,53.11Z"/><ellipse class="cls-118" cx="15.5" cy="107.15" rx="4.79" ry="11.66"/><path class="cls-119" d="M15.5,197c2.65,0,4.79,5.22,4.79,11.66s-2.14,11.66-4.79,11.66-4.79-5.22-4.79-11.66S12.85,197,15.5,197Z"/><polygon class="cls-120" points="363.25 112.29 360.09 114.13 360.09 100.18 362.69 101.69 363.25 112.29 363.25 112.29"/><polygon class="cls-121" points="362.44 111.85 360.88 112.77 360.88 101.54 361.93 102.16 362.44 111.85 362.44 111.85"/><polygon class="cls-122" points="362.69 101.69 361.93 102.16 360.88 101.54 360.09 100.18 362.69 101.69 362.69 101.69"/><polygon class="cls-123" points="362.44 111.85 363.25 112.29 360.09 114.13 360.88 112.77 362.44 111.85 362.44 111.85"/><polygon class="cls-124" points="363.25 112.29 362.44 111.85 361.93 102.16 362.69 101.69 363.25 112.29 363.25 112.29"/><polygon class="cls-125" points="360.88 101.54 360.88 112.77 360.09 114.13 360.09 100.18 360.88 101.54 360.88 101.54"/><polygon class="cls-126" points="363.25 203.52 360.09 201.69 360.09 215.63 362.69 214.12 363.25 203.52 363.25 203.52"/><polygon class="cls-127" points="362.44 203.96 360.88 203.05 360.88 214.27 361.93 213.66 362.44 203.96 362.44 203.96"/><polygon class="cls-128" points="362.69 214.12 361.93 213.66 360.88 214.27 360.09 215.63 362.69 214.12 362.69 214.12"/><polygon class="cls-129" points="362.44 203.96 363.25 203.52 360.09 201.69 360.88 203.05 362.44 203.96 362.44 203.96"/><polygon class="cls-130" points="363.25 203.52 362.44 203.96 361.93 213.66 362.69 214.12 363.25 203.52 363.25 203.52"/><polygon class="cls-131" points="360.88 214.27 360.88 203.05 360.09 201.69 360.09 215.63 360.88 214.27 360.88 214.27"/><path class="cls-132" d="M361.67,95.5c2.65,0,4.79,5.22,4.79,11.65s-2.14,11.66-4.79,11.66-4.79-5.22-4.79-11.66S359,95.5,361.67,95.5Z"/><path class="cls-133" d="M361.67,197c2.65,0,4.79,5.22,4.79,11.66s-2.14,11.66-4.79,11.66-4.79-5.22-4.79-11.66S359,197,361.67,197Z"/><ellipse class="cls-134" cx="15.69" cy="92.78" rx="1.32" ry="26.79"/><path class="cls-135" d="M14.06,111.94c-.3,0-.55-6-.55-13.41s.25-13.41.55-13.41.55,6,.55,13.41S14.37,111.94,14.06,111.94Z"/><ellipse class="cls-136" cx="15.69" cy="223.15" rx="1.32" ry="26.79"/><path class="cls-137" d="M14.06,204c-.3,0-.55,6-.55,13.41s.25,13.41.55,13.41.55-6,.55-13.41S14.37,204,14.06,204Z"/><ellipse class="cls-138" cx="361.49" cy="92.78" rx="1.32" ry="26.79"/><path class="cls-139" d="M363.11,111.94c.3,0,.55-6,.55-13.41s-.25-13.41-.55-13.41-.55,6-.55,13.41S362.81,111.94,363.11,111.94Z"/><ellipse class="cls-140" cx="361.49" cy="223.15" rx="1.32" ry="26.79"/><path class="cls-141" d="M363.11,204c.3,0,.55,6,.55,13.41s-.25,13.41-.55,13.41-.55-6-.55-13.41S362.81,204,363.11,204Z"/></g></g></g></svg>