<svg xmlns="http://www.w3.org/2000/svg" xmlns:xlink="http://www.w3.org/1999/xlink" viewBox="0 0 257.79 126.74"><defs><style>.cls-1{isolation:isolate;}.cls-2{fill-rule:evenodd;fill:url(#Безымянный_градиент_26);}.cls-3,.cls-4,.cls-5,.cls-6{opacity:0.75;mix-blend-mode:screen;}.cls-3{fill:url(#radial-gradient);}.cls-4{fill:url(#radial-gradient-2);}.cls-5{fill:url(#radial-gradient-3);}.cls-6{fill:url(#radial-gradient-4);}</style><radialGradient id="Безымянный_градиент_26" cx="29.47" cy="19.48" r="244.13" gradientUnits="userSpaceOnUse"><stop offset="0" stop-color="#9bd5e7"/><stop offset="0.96" stop-color="#088790"/><stop offset="1" stop-color="#626161"/></radialGradient><radialGradient id="radial-gradient" cx="25.92" cy="25.92" r="25.92" gradientUnits="userSpaceOnUse"><stop offset="0" stop-color="#81cbd8"/><stop offset="0.03" stop-color="#76b9c5"/><stop offset="0.12" stop-color="#5a8e97"/><stop offset="0.21" stop-color="#42686f"/><stop offset="0.31" stop-color="#2e484d"/><stop offset="0.41" stop-color="#1e2e31"/><stop offset="0.52" stop-color="#111a1c"/><stop offset="0.64" stop-color="#080c0d"/><stop offset="0.79" stop-color="#030404"/><stop offset="1" stop-color="#010101"/></radialGradient><radialGradient id="radial-gradient-2" cx="168.9" cy="-315.89" r="25.92" gradientTransform="translate(-435.41 120.64) scale(3.05 0.32)" xlink:href="#radial-gradient"/><radialGradient id="radial-gradient-3" cx="173.9" cy="90.01" r="25.92" gradientTransform="translate(-221.21 89.78) scale(1.99 0.32)" xlink:href="#radial-gradient"/><radialGradient id="radial-gradient-4" cx="173.9" cy="90.01" r="15.65" gradientTransform="translate(-221.21 89.78) scale(1.99 0.32)" xlink:href="#radial-gradient"/></defs><g class="cls-1"><g id="Слой_2" data-name="Слой 2"><g id="Слой_1-2" data-name="Слой 1"><path class="cls-2" d="M28.94,19.91h71.35l4.52,4.52h3.47l-4.52-4.52h3.47l4.52,4.52h3.47l-4.52-4.52h3.47l4.52,4.52h3.47l-4.52-4.52h3.47l4.52,4.52h3.47l-4.52-4.52h3.47l4.52,4.52H136l-4.52-4.52H135l4.52,4.52H143l-4.52-4.52h3.47l4.52,4.52h3.47l-3.78-3.78h3.47l3.78,3.78h3.46l-2.75-2.76h3.47l2.75,2.76h97.47v89.88L255,117.09H196.12L193,114H181.91l-4.51,4.52H32.82l-8.4-8.39V24.42l4.52-4.51Zm-3,6v83.55l3,3H256.29V25.92ZM33.44,117H112.7l3-3H30.41l3,3Zm80.76,0h18.69l3-3h-18.7l-3,3ZM72.76,24.43H102.7l-3-3H75.78l-3,3ZM256,114H195.1l1.64,1.63h57.6L256,114ZM28.17,28.17H254v82H30l-1.85-1.67V28.17Zm.75.75V108.2l1.39,1.26h223V28.92Z"/><path class="cls-3" d="M25.92,25.92l0,25.93a25.93,25.93,0,1,1,26-25.93Z"/><ellipse class="cls-4" cx="79.8" cy="19.91" rx="79.07" ry="8.27"/><path class="cls-5" d="M74,118.48c0-4.57,23.15-8.27,51.71-8.27s51.72,3.7,51.72,8.27-23.16,8.26-51.72,8.26S74,123,74,118.48Z"/><path class="cls-6" d="M94.46,118.48c0-2.76,14-5,31.22-5s31.22,2.23,31.22,5-14,5-31.22,5S94.46,121.23,94.46,118.48Z"/></g></g></g></svg>